<?xml version="1.0" encoding="UTF-8"?>
<svg id="Layer_1" xmlns="http://www.w3.org/2000/svg" version="1.1" viewBox="0 0 512 512">
  <!-- Generator: Adobe Illustrator 29.6.0, SVG Export Plug-In . SVG Version: 2.1.1 Build 207)  -->
  <defs>
    <style>
      .st0 {
        fill: #b2b2b2;
      }
    </style>
  </defs>
  <path class="st0" d="M206.32,40.14l48.36,173.71h-50.65l-10.31-37.67h-52.3l-11.07,37.67h-19.73l51.41-173.71h44.29ZM146.38,158.75h42.63l-20.49-76.99-22.14,76.99Z"/>
  <path class="st0" d="M113.73,446.9v-173.71h77.25c39.79,0,59.69,14.21,59.69,42.63,0,20.19-12.01,33.13-36.02,38.82,28.93,5.77,43.4,21.13,43.4,46.07,0,30.8-19.47,46.2-58.41,46.2h-85.9ZM164.13,348.78h15.53c14.34,0,21.51-10.6,21.51-31.82,0-19.6-7.59-29.4-22.78-29.4h-14.25v61.21ZM164.13,432.52h14.38c18.83,0,28.25-10.77,28.25-32.32,0-24.69-9.72-37.03-29.14-37.03h-13.49v69.36Z"/>
  <path class="st0" d="M435.98,245.63c0-.7.03-1.4.03-2.1h-.07c-1.36-49.16-26.4-96.42-66.59-126.22l8.97-25.82-102.83,19.72,68.48,79.2,7.78-22.41c20.76,20.65,33.62,49.15,34.23,77.63-.61,28.49-13.46,56.99-34.23,77.63l-7.78-22.41-68.48,79.2,102.83,19.72-8.96-25.82c40.19-29.79,65.24-77.05,66.59-126.22h.07c0-.7-.03-1.4-.03-2.1Z"/>
</svg>